# xmcd
#
# Track frame offsets:
# 150
# 16244
# 30551
# 46058
# 58865
# 73845
# 91009
# 111484
# 127599
# 141874
#
# Disc length: 2243 seconds
#
#
# Revision: 0
# Processed by: cddbd v1.5.2PL0 Copyright (c) Steve Scherf et al.
# Submitted via: FreeRIP 2.90 
#
DISCID=7f08c10a
DTITLE=Erann - Erann
DYEAR=2006
DGENRE=Soul
TTITLE0=Take me to the woman (i love)
TTITLE1=Pretending
TTITLE2=Thelma
TTITLE3=Don't go
TTITLE4=Alone again (naturally)
TTITLE5=Love is coming
TTITLE6=I can live without you
TTITLE7=I can tell ya
TTITLE8=Stop driving (in overload)
TTITLE9=You are the one for me
EXTD=
EXTT0=
EXTT1=
EXTT2=
EXTT3=
EXTT4=
EXTT5=
EXTT6=
EXTT7=
EXTT8=
EXTT9=
PLAYORDER=
